<svg width="139" height="30" viewBox="0 0 139 30" fill="none" xmlns="http://www.w3.org/2000/svg">
<path d="M45.2191 16.0438C45.2191 14.5785 45.5281 13.2876 46.1462 12.1712C46.7642 11.0547 47.6414 10.1925 48.7778 9.58442C49.9141 8.97636 51.215 8.67233 52.6803 8.67233C54.0061 8.67233 55.1873 8.91655 56.224 9.40499C57.2707 9.89343 58.103 10.5862 58.7211 11.4834C59.349 12.3805 59.7029 13.4122 59.7827 14.5785H55.4465C55.287 13.8807 54.9481 13.3574 54.4297 13.0085C53.9214 12.6496 53.3183 12.4702 52.6205 12.4702C51.7034 12.4702 50.9608 12.7942 50.3926 13.4421C49.8344 14.0801 49.5553 14.9473 49.5553 16.0438C49.5553 17.1304 49.8294 17.9976 50.3777 18.6455C50.9359 19.2835 51.6835 19.6025 52.6205 19.6025C53.3582 19.6025 53.9812 19.4081 54.4895 19.0193C54.9979 18.6306 55.3169 18.1272 55.4465 17.5091H59.7827C59.683 18.6555 59.3191 19.6722 58.6911 20.5594C58.0731 21.4466 57.2408 22.1394 56.1941 22.6378C55.1574 23.1262 53.9862 23.3704 52.6803 23.3704C51.215 23.3704 49.9141 23.0664 48.7778 22.4584C47.6414 21.8403 46.7642 20.9831 46.1462 19.8866C45.5281 18.7801 45.2191 17.4992 45.2191 16.0438Z" fill="#0E1638"/>
<path d="M61.7564 16.0438C61.7564 14.6184 62.0754 13.3474 62.7133 12.231C63.3613 11.1046 64.2634 10.2324 65.4197 9.61432C66.586 8.98633 67.9267 8.67233 69.4419 8.67233C70.957 8.67233 72.2878 8.98633 73.4341 9.61432C74.5904 10.2324 75.4876 11.1046 76.1255 12.231C76.7735 13.3474 77.0974 14.6184 77.0974 16.0438C77.0974 17.4493 76.7735 18.7103 76.1255 19.8268C75.4876 20.9432 74.5855 21.8154 73.4192 22.4434C72.2529 23.0614 70.9271 23.3704 69.4419 23.3704C67.9267 23.3704 66.586 23.0614 65.4197 22.4434C64.2634 21.8154 63.3613 20.9432 62.7133 19.8268C62.0754 18.7103 61.7564 17.4493 61.7564 16.0438ZM66.1224 16.0139C66.1224 17.0606 66.4265 17.9178 67.0345 18.5857C67.6526 19.2436 68.455 19.5726 69.4419 19.5726C70.4187 19.5726 71.2112 19.2436 71.8193 18.5857C72.4373 17.9178 72.7463 17.0606 72.7463 16.0139C72.7463 14.9772 72.4423 14.1349 71.8342 13.487C71.2361 12.8291 70.4387 12.5001 69.4419 12.5001C68.445 12.5001 67.6426 12.8291 67.0345 13.487C66.4265 14.1349 66.1224 14.9772 66.1224 16.0139Z" fill="#0E1638"/>
<path d="M94.3823 1.95874V22.9667H90.8237L90.5844 21.307C90.1159 21.9649 89.468 22.4733 88.6406 22.8322C87.8133 23.191 86.8962 23.3704 85.8894 23.3704C84.5636 23.3704 83.3824 23.0664 82.3457 22.4584C81.319 21.8403 80.5165 20.9831 79.9384 19.8866C79.3602 18.7801 79.0711 17.4992 79.0711 16.0438C79.0711 14.5984 79.3602 13.3125 79.9384 12.1861C80.5165 11.0597 81.319 10.1925 82.3457 9.58442C83.3824 8.97636 84.5636 8.67233 85.8894 8.67233C86.8065 8.67233 87.6239 8.80191 88.3416 9.06109C89.0593 9.31029 89.6524 9.67912 90.1209 10.1676V1.95874H94.3823ZM86.7267 19.5128C87.7235 19.5128 88.531 19.1938 89.149 18.5558C89.777 17.9079 90.091 17.0506 90.091 15.984C90.091 14.9473 89.777 14.115 89.149 13.487C88.531 12.849 87.7235 12.53 86.7267 12.53C85.7299 12.53 84.9325 12.854 84.3344 13.5019C83.7363 14.1399 83.4372 14.9772 83.4372 16.0139C83.4372 17.0506 83.7363 17.8929 84.3344 18.5409C84.9424 19.1888 85.7399 19.5128 86.7267 19.5128Z" fill="#0E1638"/>
<path d="M111.099 18.5259C110.81 19.9713 110.027 21.1426 108.751 22.0397C107.476 22.9269 105.95 23.3704 104.176 23.3704C102.731 23.3704 101.455 23.0664 100.348 22.4584C99.2418 21.8403 98.3845 20.9781 97.7765 19.8716C97.1684 18.7552 96.8644 17.4693 96.8644 16.0139C96.8644 14.5486 97.1684 13.2577 97.7765 12.1413C98.3845 11.0248 99.2418 10.1676 100.348 9.56947C101.455 8.97137 102.701 8.67233 104.086 8.67233C105.452 8.67233 106.663 8.95642 107.72 9.52461C108.786 10.0928 109.609 10.8853 110.187 11.902C110.775 12.9088 111.069 14.0552 111.069 15.3411C111.069 16.0588 111.009 16.6818 110.89 17.2101H101.081C101.121 18.0275 101.42 18.6804 101.978 19.1688C102.546 19.6573 103.279 19.9015 104.176 19.9015C104.854 19.9015 105.437 19.7769 105.925 19.5277C106.414 19.2685 106.748 18.9346 106.927 18.5259H111.099ZM106.688 14.429C106.668 13.7312 106.399 13.178 105.881 12.7693C105.372 12.3606 104.724 12.1562 103.937 12.1562C103.139 12.1562 102.481 12.3606 101.963 12.7693C101.455 13.178 101.181 13.7312 101.141 14.429H106.688Z" fill="#0E1638"/>
<path d="M120.997 9.03118C121.446 9.03118 121.875 9.07106 122.283 9.1508V12.859C122.144 12.839 121.929 12.8291 121.64 12.8291C120.414 12.8291 119.467 13.153 118.799 13.801C118.142 14.4389 117.813 15.3411 117.813 16.5073V22.9667H113.536V9.1508H117.454L117.723 11.0198C117.952 10.3619 118.356 9.86851 118.934 9.53956C119.512 9.20064 120.2 9.03118 120.997 9.03118Z" fill="#0E1638"/>
<path d="M139 9.1508V22.9667H134.888V21.3818C134.42 21.9899 133.767 22.4733 132.929 22.8322C132.092 23.191 131.185 23.3704 130.208 23.3704C128.922 23.3704 127.781 23.0714 126.784 22.4733C125.797 21.8652 125.035 21.0229 124.496 19.9464C123.958 18.8598 123.689 17.5989 123.689 16.1634C123.689 14.6682 123.978 13.3574 124.556 12.231C125.134 11.1046 125.947 10.2324 126.993 9.61432C128.05 8.98633 129.251 8.67233 130.597 8.67233C132.58 8.67233 134.091 9.28039 135.127 10.4965L135.411 9.1508H139ZM131.344 19.5128C132.341 19.5128 133.149 19.1938 133.767 18.5558C134.395 17.9079 134.709 17.0506 134.709 15.984C134.709 14.9473 134.395 14.115 133.767 13.487C133.149 12.849 132.341 12.53 131.344 12.53C130.348 12.53 129.55 12.854 128.952 13.5019C128.354 14.1399 128.055 14.9772 128.055 16.0139C128.055 17.0506 128.354 17.8929 128.952 18.5409C129.56 19.1888 130.358 19.5128 131.344 19.5128Z" fill="#0E1638"/>
<path fill-rule="evenodd" clip-rule="evenodd" d="M14.8859 22.825C19.2705 22.825 22.825 19.2705 22.825 14.8859C22.825 10.5012 19.2705 6.94673 14.8859 6.94673C10.5012 6.94673 6.94673 10.5012 6.94673 14.8859C6.94673 19.2705 10.5012 22.825 14.8859 22.825ZM14.8859 29.7717C23.1071 29.7717 29.7717 23.1071 29.7717 14.8859C29.7717 6.66462 23.1071 0 14.8859 0C6.66462 0 0 6.66462 0 14.8859C0 23.1071 6.66462 29.7717 14.8859 29.7717Z" fill="#4C20F6"/>
<circle cx="27.1253" cy="14.8859" r="8.26992" fill="#00FF39"/>
<path fill-rule="evenodd" clip-rule="evenodd" d="M20.7865 20.1975C22.0537 18.7907 22.825 16.9284 22.825 14.8859C22.825 12.8434 22.0537 10.9811 20.7865 9.57425C22.3035 7.76575 24.5801 6.61597 27.1253 6.61597C27.1722 6.61597 27.2191 6.61636 27.2658 6.61714C28.8486 8.98226 29.7717 11.8263 29.7717 14.8859C29.7717 17.9455 28.8486 20.7895 27.2658 23.1546C27.2191 23.1554 27.1722 23.1558 27.1253 23.1558C24.5801 23.1558 22.3035 22.006 20.7865 20.1975Z" fill="#0091F7"/>
</svg>
