<svg xmlns="http://www.w3.org/2000/svg" version="1.1" xmlns:xlink="http://www.w3.org/1999/xlink" xmlns:svgjs="http://svgjs.com/svgjs" width="676" height="568"><svg width="676" height="568" viewBox="0 0 676 568" fill="none" xmlns="http://www.w3.org/2000/svg">
<path fill-rule="evenodd" clip-rule="evenodd" d="M284 435.467C367.653 435.467 435.467 367.653 435.467 284C435.467 200.347 367.653 132.533 284 132.533C200.347 132.533 132.533 200.347 132.533 284C132.533 367.653 200.347 435.467 284 435.467ZM284 568C440.849 568 568 440.849 568 284C568 127.151 440.849 0 284 0C127.151 0 0 127.151 0 284C0 440.849 127.151 568 284 568Z" fill="#4C20F6"></path>
<circle cx="517.511" cy="284" r="157.778" fill="#00FF39"></circle>
<path fill-rule="evenodd" clip-rule="evenodd" d="M396.575 385.338C420.752 358.498 435.467 322.968 435.467 284C435.467 245.032 420.752 209.502 396.575 182.662C425.518 148.158 468.953 126.222 517.511 126.222C518.406 126.222 519.299 126.23 520.191 126.245C550.389 171.368 568 225.627 568 284C568 342.373 550.389 396.632 520.191 441.755C519.299 441.77 518.406 441.778 517.511 441.778C468.953 441.778 425.518 419.842 396.575 385.338Z" fill="#0091F7"></path>
</svg><style>@media (prefers-color-scheme: light) { :root { filter: none; } }
</style></svg>